<svg width="193" height="259" viewBox="0 0 193 259" fill="none" xmlns="http://www.w3.org/2000/svg">
<path d="M13.2529 46.5085C12.9619 48.946 10.7104 50.7168 8.27272 50.4257C5.77396 50.1276 4.00324 47.8763 4.29441 45.438C4.59285 42.9395 6.84403 41.1687 9.34279 41.4669C11.7805 41.7579 13.5515 44.01 13.2529 46.5085ZM6.78886 15.7571C6.25308 16.6202 5.15883 16.984 4.21279 16.624L1.43594 15.5505C0.192309 15.0927 -0.371483 13.6036 0.261716 12.4432C3.15712 7.34909 8.43109 5.63071 13.6112 6.24888C20.8635 7.11511 25.8837 13.2163 25.1771 19.128C24.1293 27.9038 16.1291 28.1229 14.1239 34.559C13.7566 35.566 12.8087 36.2562 11.7727 36.1326L8.72547 35.7687C7.38473 35.6083 6.49425 34.2655 6.8981 32.9541C9.16625 25.8693 16.6123 24.5954 17.2456 19.2932C17.6095 16.2461 15.9969 13.7046 12.2183 13.2531C9.53684 12.933 7.78482 14.1451 6.78886 15.7571Z" fill="#371A45"/>
<path d="M100.763 258.798C67.0784 258.798 39.7715 254.392 39.7715 248.956C39.7715 246.419 45.7232 244.106 55.499 242.36C55.675 244.89 57.1031 249.44 64.7638 251.114C68.4172 251.914 72.6388 252.209 76.8815 252.209C87.2403 252.209 97.7258 250.45 100.373 249.974C104.92 252.273 111.12 253.173 117.28 253.173C123.912 253.173 130.501 252.131 134.937 250.67C138.835 249.385 141.248 247.791 142.107 245.93C142.561 244.945 142.871 243.538 143.073 241.868C154.589 243.658 161.755 246.173 161.755 248.956C161.755 254.392 134.448 258.798 100.763 258.798Z" fill="#A9A3DA"/>
<path d="M158.862 182.179C158.718 182.83 158.522 183.458 158.282 184.061C156.805 187.773 153.604 190.59 149.634 191.52C138.567 194.124 115.146 197.281 87.6494 187.223C87.6494 187.223 81.7627 132.973 93.17 105.773C93.17 105.773 118.618 100.493 152.871 111.118C155.797 112.023 158.194 113.957 159.718 116.456C160.801 118.229 161.448 120.29 161.522 122.465C162.02 136.864 162.474 166.024 158.862 182.179Z" fill="white"/>
<path d="M89.2788 185.954C115.724 195.344 138.145 192.426 149.236 189.821C153.166 188.899 156.276 185.749 157.16 181.797C160.676 166.059 160.308 137.906 159.777 122.524C159.621 118.028 156.639 114.115 152.356 112.787C122.516 103.533 99.2072 106.546 94.4253 107.325C84.6511 131.945 88.5495 178.294 89.2788 185.954ZM126.258 195.884C115.093 195.884 101.642 194.201 87.0495 188.864C86.4258 188.635 85.9853 188.072 85.9133 187.411C85.6707 185.178 80.1087 132.4 91.5614 105.097C91.7836 104.567 92.2539 104.179 92.8173 104.063C93.8745 103.843 119.099 98.8151 153.391 109.449C159.092 111.218 163.062 116.424 163.268 122.404C163.806 137.952 164.17 166.441 160.569 182.559C159.396 187.81 155.261 191.996 150.034 193.223C144.529 194.516 136.321 195.884 126.258 195.884Z" fill="#371A45"/>
<path d="M158.501 117.118C158.504 117.112 158.457 117.094 158.422 117.079C158.388 117.064 158.345 117.05 158.302 117.034C158.219 117.003 158.133 116.973 158.04 116.946C157.863 116.886 157.672 116.84 157.485 116.787C157.104 116.696 156.712 116.615 156.315 116.559C155.52 116.443 154.702 116.393 153.882 116.435C153.064 116.475 152.234 116.572 151.423 116.777C150.601 116.956 149.808 117.255 149.015 117.584L148.979 117.599C148.653 117.734 148.281 117.579 148.146 117.254C148.029 116.971 148.131 116.652 148.374 116.485C149.141 115.958 149.941 115.447 150.809 115.056C151.666 114.638 152.579 114.327 153.515 114.081C154.452 113.833 155.421 113.686 156.405 113.621C156.897 113.589 157.394 113.584 157.896 113.598C158.149 113.612 158.401 113.621 158.659 113.649C158.787 113.659 158.918 113.675 159.052 113.693L159.257 113.723C159.33 113.736 159.391 113.744 159.501 113.769C160.425 114.046 160.951 115.019 160.675 115.943C160.399 116.868 159.426 117.393 158.501 117.118Z" fill="#371A45"/>
<path d="M143.501 190.973C143.895 188.112 144.413 185.633 145.09 183.941C145.153 183.785 145.212 183.629 145.271 183.472C145.481 183.959 145.757 184.417 146.113 184.834C147.217 186.129 148.884 186.705 150.6 186.705C151.838 186.705 153.102 186.406 154.202 185.86C154.855 185.537 155.462 185.147 156.034 184.708C154.593 187.244 152.137 189.14 149.235 189.821C147.571 190.213 145.651 190.611 143.501 190.973ZM146.172 165.897C146.146 165.74 146.12 165.587 146.094 165.441C146.138 165.443 146.181 165.446 146.225 165.447C146.208 165.597 146.19 165.748 146.172 165.897ZM151.94 121.923C149.229 118.18 145.055 114.891 139.539 112.171C140.527 111.503 141.493 110.808 142.441 110.083C145.649 110.84 148.96 111.734 152.356 112.787C153.18 113.042 153.957 113.394 154.674 113.827C154.283 113.895 153.897 113.98 153.515 114.081C152.579 114.326 151.666 114.638 150.809 115.056C149.942 115.447 149.141 115.958 148.374 116.485C148.132 116.652 148.029 116.971 148.147 117.254C148.248 117.5 148.485 117.647 148.736 117.647C148.816 117.647 148.899 117.632 148.979 117.599L149.015 117.584C149.809 117.255 150.601 116.956 151.423 116.777C152.234 116.572 153.064 116.475 153.882 116.435C154.077 116.425 154.271 116.42 154.465 116.42C155.089 116.42 155.709 116.471 156.315 116.559C156.35 116.564 156.384 116.568 156.418 116.574C155.743 116.866 155.12 117.262 154.594 117.762C153.367 118.923 152.532 120.355 151.94 121.923Z" fill="#D7D1DA"/>
<path d="M143.349 192.136C143.396 191.742 143.447 191.354 143.5 190.973C145.65 190.611 147.57 190.212 149.234 189.821C152.136 189.14 154.592 187.244 156.033 184.707C156.481 184.363 156.908 183.989 157.319 183.594C155.842 187.306 152.641 190.123 148.671 191.053C147.129 191.416 145.348 191.789 143.349 192.136ZM154.673 113.827C153.956 113.394 153.179 113.042 152.355 112.786C148.959 111.734 145.648 110.839 142.439 110.083C143.099 109.578 143.749 109.059 144.388 108.528C146.842 109.153 149.349 109.857 151.908 110.652C153.812 111.24 155.494 112.265 156.855 113.599C156.704 113.604 156.554 113.611 156.404 113.621C155.82 113.66 155.242 113.727 154.673 113.827Z" fill="#371A45"/>
<path d="M148.736 117.647C148.485 117.647 148.248 117.5 148.146 117.254C148.029 116.971 148.131 116.652 148.374 116.485C149.141 115.958 149.941 115.447 150.809 115.056C151.666 114.638 152.579 114.327 153.515 114.081C153.897 113.98 154.283 113.895 154.674 113.827C155.243 113.727 155.821 113.66 156.405 113.621C156.555 113.611 156.705 113.604 156.856 113.599C157.586 114.314 158.224 115.117 158.756 115.989C157.954 116.059 157.155 116.255 156.418 116.574C156.384 116.568 156.349 116.564 156.315 116.559C155.708 116.471 155.089 116.421 154.465 116.421C154.271 116.421 154.077 116.425 153.882 116.435C153.064 116.475 152.234 116.572 151.423 116.777C150.601 116.956 149.808 117.255 149.015 117.584L148.979 117.599C148.899 117.632 148.816 117.647 148.736 117.647Z" fill="#371A45"/>
<path d="M190.211 136.968C188.948 139.917 180.105 136.968 180.105 136.968C180.105 136.968 182.21 142.864 186 146.656C186.813 147.468 187.551 148.455 188.101 149.546C190.132 153.542 189.73 158.928 181.79 162.238C171.68 166.448 164.941 158.447 161.155 152.97C161.155 152.97 156.94 165.858 143.887 163.417C143.887 163.417 146.834 174.868 143.467 183.292C140.096 191.717 140.519 217.825 140.519 217.825C140.519 217.825 143.044 239.722 140.519 245.199C137.99 250.675 112.159 254.461 100.65 248.147C100.65 248.147 78.6135 252.357 65.1358 249.409C56.7896 247.583 56.0345 241.88 58.375 237.503C59.8077 234.813 62.4103 232.625 65.1358 232.145C65.1358 232.145 59.7115 179.925 61.3711 156.342C61.3711 156.342 48.2909 159.709 40.7092 155.075C33.1276 150.446 25.9701 134.44 25.9701 134.44C25.9701 134.44 18.812 139.917 12.9161 134.021C7.02034 128.124 24.7079 123.072 24.7079 123.072C24.7079 123.072 20.917 120.591 22.603 117.036C23.6226 114.877 24.8519 115.269 26.8715 115.66C28.1814 115.914 29.8239 116.168 31.9578 115.727C37.386 114.6 44.876 116.097 53.8591 125.456C53.8591 125.456 57.0478 118.954 66.3588 113.429C73.6087 109.114 84.5785 105.393 100.65 105.804C118.57 106.262 135.532 110.294 145.31 117.722C149.712 121.067 152.661 125.102 153.573 129.811C153.573 129.811 165.365 126.33 175.051 127.016C184.739 127.701 191.473 134.021 190.211 136.968Z" fill="white"/>
<path d="M117.466 249.689C111.35 249.689 105.393 248.756 101.491 246.615C101.232 246.473 100.942 246.399 100.651 246.399C100.542 246.399 100.431 246.41 100.323 246.43C100.162 246.461 88.2213 248.707 76.7718 248.707C72.7857 248.707 68.8584 248.434 65.5093 247.702C62.517 247.048 58.9723 245.49 58.9707 241.788C58.9707 241.747 58.9715 241.707 58.9723 241.666C58.9926 240.659 59.2774 239.62 59.7516 238.641C63.7745 241.688 68.8584 243.271 73.9258 243.271C78.2351 243.271 82.5318 242.126 86.1469 239.761C86.186 234.341 85.7322 228.205 85.2776 222.065C84.0029 214.662 83.8933 207.064 84.8895 199.613C74.2592 197.298 65.9177 187.161 65.7691 176.361C74.2201 183.851 85.4568 188.114 96.7467 188.114C104.928 188.111 113.081 185.866 120.165 181.779C122.33 180.53 121.37 177.275 118.962 177.275C118.891 177.275 118.819 177.278 118.746 177.284C114.393 177.626 110.045 177.8 105.715 177.8C91.0548 177.8 76.5989 175.8 62.8433 171.533C62.8183 169.975 62.8042 168.455 62.8042 166.978C62.8042 166.663 62.805 166.35 62.8065 166.039C63.8723 167.037 65.2464 167.727 66.7996 167.941L102.963 172.909C102.975 172.911 102.987 172.912 103 172.914L111.03 174.017C111.366 174.063 111.699 174.085 112.03 174.085C115.624 174.085 118.765 171.427 119.269 167.769L119.967 162.683C123.154 163.312 128.353 164.08 134.72 164.08C136.814 164.08 138.905 163.998 140.934 163.834C141.424 163.795 141.86 163.555 142.155 163.19C142.145 163.265 142.14 163.342 142.14 163.419C142.14 163.563 142.158 163.708 142.195 163.852C142.213 163.922 143.336 168.378 143.336 173.621C143.335 176.594 142.974 179.82 141.845 182.642C139.045 189.643 138.753 207.657 138.754 214.853C138.754 216.551 138.769 217.646 138.773 217.853C138.774 217.91 138.778 217.967 138.784 218.024C139.366 223.075 139.903 230.035 139.902 235.668C139.902 239.633 139.636 242.941 138.934 244.465C138.63 245.124 137.115 246.273 133.843 247.351C129.353 248.829 123.337 249.689 117.466 249.689ZM101.696 237.801C101.207 239.192 100.82 240.795 100.764 242.556C104.15 244.167 107.803 245.317 111.497 245.317C112.001 245.317 112.505 245.296 113.01 245.251C117.211 244.879 121.431 242.656 123.321 238.883C124.903 235.726 124.693 232.005 124.448 228.481C123.659 217.115 122.87 205.745 122.078 194.378C121.92 192.115 120.027 190.459 117.902 190.459C117.477 190.459 117.042 190.525 116.611 190.665C110.602 192.624 104.39 193.964 98.1043 194.652C100.314 197.948 102.101 201.685 103.38 205.66C102.969 204.617 102.671 203.991 102.612 203.869C102.315 203.256 101.697 202.883 101.04 202.883C100.9 202.883 100.759 202.9 100.619 202.935C99.818 203.134 99.2648 203.866 99.2937 204.692C99.4635 209.547 96.5941 218.017 96.5651 218.102C96.4165 218.537 96.4454 219.014 96.6457 219.428C99.2961 224.905 100.777 236.368 100.791 236.483C100.864 237.055 101.211 237.54 101.696 237.801ZM102.856 227.917C102.179 224.728 101.256 221.208 100.093 218.561C100.457 217.432 101.194 215.029 101.806 212.324C102.829 216.428 103.637 221.975 102.856 227.917ZM142.527 162.32C142.617 161.635 142.293 160.953 141.69 160.594C139.805 159.468 136.948 157.171 134.044 152.62C133.734 152.134 133.203 151.832 132.627 151.814C127.649 151.653 123.74 150.982 121.636 150.538L122.78 142.207C123.468 140.774 123.891 139.224 124.069 137.639C124.494 133.864 121.479 130.625 117.751 130.625C117.585 130.625 117.418 130.632 117.25 130.645C115.916 130.748 114.396 130.824 112.696 130.824C102.997 130.824 87.4756 128.364 67.9131 114.545C69.0078 113.923 70.2058 113.306 71.5134 112.71C79.7093 118.072 89.2613 121.521 99.5285 122.461C101.417 122.633 103.295 122.719 105.162 122.719C116.218 122.718 126.822 119.737 136.015 114.386C139.06 115.717 141.795 117.246 144.11 118.978C142.783 120.302 141.345 121.53 139.819 122.644C137.577 124.281 137.037 127.449 138.643 129.713C139.736 131.254 141.289 132.447 143.083 132.985C143.831 133.211 144.608 133.319 145.385 133.318C147.838 133.318 150.302 132.244 151.934 130.415C152.022 130.653 152.161 130.869 152.341 131.048C149.892 134.593 147.627 137.914 145.359 141.231C146.604 142.432 148.144 142.897 149.734 142.897C150.947 142.897 152.191 142.626 153.355 142.204C155.235 141.526 156.953 140.492 158.61 139.359C158.906 139.156 159.236 139.062 159.56 139.062C160.283 139.062 160.972 139.531 161.184 140.305C162.644 145.644 166.79 150.237 172.026 152.084C173.8 152.71 175.676 153.013 177.555 153.013C180.73 153.013 183.916 152.149 186.64 150.524C187.096 151.472 187.392 152.519 187.392 153.598C187.392 153.962 187.358 154.33 187.285 154.699C186.812 157.091 184.68 159.14 181.119 160.625C179.369 161.353 177.738 161.674 176.212 161.674C170.204 161.674 165.853 156.693 162.592 151.977C162.263 151.501 161.724 151.225 161.156 151.225C161.074 151.225 160.991 151.231 160.908 151.243C160.252 151.336 159.705 151.795 159.496 152.423C159.354 152.848 156.203 161.973 147.043 161.973C146.155 161.973 145.211 161.887 144.208 161.7C144.101 161.679 143.993 161.67 143.887 161.67C143.409 161.67 142.945 161.867 142.611 162.223C142.582 162.254 142.553 162.287 142.527 162.32Z" fill="#D7D1DA"/>
<path d="M100.092 218.561C101.255 221.208 102.178 224.729 102.856 227.917C103.636 221.975 102.828 216.428 101.806 212.324C101.193 215.03 100.456 217.432 100.092 218.561ZM102.525 238.01C102.453 238.01 102.381 238.005 102.309 237.997C101.517 237.899 100.892 237.275 100.791 236.483C100.776 236.368 99.2953 224.906 96.645 219.428C96.4446 219.014 96.4157 218.538 96.5644 218.102C96.5933 218.017 99.4627 209.547 99.2929 204.692C99.264 203.866 99.8172 203.134 100.618 202.935C101.419 202.736 102.251 203.126 102.611 203.869C102.937 204.543 110.53 220.558 104.151 236.898C103.887 237.575 103.236 238.01 102.525 238.01ZM100.65 246.399C100.942 246.399 101.231 246.473 101.49 246.615C109.136 250.811 124.676 250.37 133.842 247.352C137.114 246.273 138.629 245.124 138.933 244.466C139.635 242.941 139.902 239.633 139.902 235.668C139.902 230.035 139.366 223.075 138.783 218.024C138.777 217.967 138.773 217.91 138.772 217.853C138.768 217.646 138.753 216.551 138.753 214.853C138.752 207.657 139.044 189.643 141.844 182.643C142.974 179.82 143.334 176.594 143.335 173.621C143.335 168.378 142.212 163.922 142.194 163.853C142.158 163.709 142.14 163.563 142.14 163.419C142.139 162.98 142.304 162.552 142.61 162.223C143.018 161.788 143.621 161.59 144.207 161.7C155.562 163.823 159.34 152.89 159.495 152.423C159.704 151.795 160.251 151.336 160.907 151.243C161.561 151.149 162.215 151.432 162.591 151.977C166.681 157.892 172.482 164.221 181.118 160.625C184.679 159.14 186.812 157.091 187.284 154.699C187.357 154.33 187.391 153.963 187.391 153.598C187.391 151.351 186.107 149.233 184.765 147.89C180.742 143.868 178.55 137.812 178.458 137.556C178.39 137.364 178.357 137.165 178.357 136.968C178.357 136.519 178.53 136.078 178.856 135.746C179.323 135.269 180.023 135.1 180.656 135.312C184.323 136.529 187.975 136.823 188.609 136.262C188.613 136.246 188.615 136.222 188.615 136.191C188.615 136.03 188.548 135.672 188.207 135.113C186.533 132.369 181.31 129.21 174.928 128.758C165.665 128.102 154.182 131.452 154.067 131.486C153.595 131.625 153.086 131.559 152.666 131.304C152.245 131.048 151.951 130.627 151.858 130.144C148.985 115.367 124.047 108.149 100.605 107.55C82.2712 107.076 70.9586 112.197 64.6978 116.57C57.9433 121.288 55.4487 126.182 55.4244 126.231C55.1709 126.739 54.6842 127.095 54.1231 127.181C53.5613 127.265 52.9924 127.076 52.5988 126.666C45.4601 119.229 38.6335 116.125 32.3117 117.436C29.6371 117.99 27.641 117.594 26.1824 117.305C24.5587 116.982 24.5595 116.982 24.1815 117.782C24.0039 118.157 23.9304 118.515 23.9296 118.852C23.9288 120.388 25.4625 121.475 25.673 121.616C26.1605 121.945 26.4484 122.494 26.4492 123.071C26.4492 123.161 26.4414 123.251 26.4273 123.342C26.3217 124.012 25.8404 124.564 25.1878 124.752C20.8328 125.998 14.1044 128.944 13.4934 131.304C13.4796 131.358 13.4586 131.439 13.4586 131.548C13.459 131.801 13.5727 132.207 14.1508 132.786C18.8722 137.507 24.6683 133.233 24.9124 133.049C25.3373 132.729 25.8874 132.617 26.4023 132.751C26.9172 132.883 27.3468 133.241 27.5643 133.726C27.6331 133.882 34.5911 149.293 41.6196 153.585C48.4735 157.773 60.8119 154.682 60.9363 154.65C61.4794 154.511 62.0577 154.641 62.4888 155C62.8879 155.333 63.1172 155.825 63.1172 156.341C63.1172 156.381 63.1164 156.423 63.1133 156.464C62.8973 159.529 62.8034 163.096 62.8034 166.979C62.8026 192.44 66.8262 231.512 66.8724 231.964C66.8794 232.025 66.8818 232.085 66.8826 232.144C66.8833 232.983 66.2816 233.716 65.4389 233.865C62.1844 234.439 59.0411 238.231 58.9715 241.667C58.9707 241.707 58.9699 241.747 58.9699 241.788C58.9715 245.49 62.5162 247.048 65.5085 247.702C78.4761 250.539 100.105 246.472 100.323 246.431C100.431 246.41 100.541 246.399 100.65 246.399ZM117.279 253.173C111.118 253.173 104.918 252.273 100.371 249.974C96.6403 250.645 77.3344 253.866 64.762 251.115C56.4534 249.298 55.4768 244.099 55.4761 241.765C55.4761 241.707 55.4768 241.65 55.4784 241.595C55.5707 237.063 59.045 232.429 63.2486 230.86C62.4982 223.376 59.3056 190.169 59.3048 167.167C59.3048 164.072 59.362 161.162 59.4919 158.524C55.2155 159.3 45.9914 160.352 39.7979 156.566C33.3352 152.62 27.3898 141.391 25.227 136.961C21.8145 138.734 16.2601 139.835 11.6804 135.256C10.3516 133.927 9.96445 132.627 9.96484 131.562C9.96492 131.143 10.0252 130.761 10.1115 130.427C11.1272 126.508 17.564 123.666 21.5069 122.267C20.8795 121.315 20.4193 120.155 20.4194 118.856C20.4194 118.048 20.5975 117.187 21.0242 116.287C22.5649 113.025 25.0485 113.517 26.8624 113.878C28.1559 114.134 29.6223 114.425 31.6028 114.015C36.5333 112.993 44.2441 113.742 53.5331 122.659C54.9753 120.577 57.7782 117.184 62.4873 113.853C69.1917 109.111 81.2626 103.562 100.694 104.057C114.238 104.404 126.928 106.783 136.426 110.758C146.403 114.934 152.722 120.749 154.834 127.658C158.542 126.707 167.42 124.725 175.174 125.273C182.805 125.814 189.007 129.716 191.189 133.293C191.88 134.426 192.112 135.395 192.112 136.184C192.112 136.779 191.98 137.272 191.816 137.656C190.612 140.468 186.574 140.317 183.2 139.619C184.137 141.441 185.505 143.689 187.235 145.42C189.107 147.292 190.884 150.303 190.883 153.619C190.883 154.197 190.829 154.784 190.712 155.376C190.217 157.879 188.384 161.381 182.463 163.85C172.242 168.105 165.125 161.098 161.516 156.446C159.091 160.821 154.072 165.868 146.093 165.441C146.439 167.395 146.832 170.325 146.832 173.574C146.832 176.931 146.413 180.629 145.089 183.941C142.507 190.394 142.25 208.288 142.25 215.109V215.115V215.121C142.25 216.509 142.261 217.436 142.265 217.712C142.457 219.402 143.388 227.94 143.388 235.436C143.389 239.813 143.071 243.833 142.105 245.93C141.246 247.791 138.833 249.385 134.935 250.67C130.499 252.131 123.91 253.173 117.279 253.173Z" fill="#371A45"/>
<path d="M143.591 165.137L143.376 165.09L143.225 165.047L142.926 164.96L142.39 164.766C142.04 164.633 141.718 164.477 141.385 164.329L140.446 163.827C140.145 163.647 139.854 163.457 139.559 163.271C139.258 163.091 138.99 162.878 138.713 162.674C138.44 162.465 138.156 162.269 137.895 162.05L137.127 161.379C136.872 161.155 136.612 160.936 136.383 160.69L135.677 159.97C135.442 159.729 135.202 159.493 134.995 159.233C134.569 158.721 134.129 158.218 133.716 157.7L132.554 156.094C132.353 155.831 132.184 155.55 132.011 155.271L131.493 154.435C130.766 153.339 130.212 152.159 129.589 151.016C129.281 150.442 129.044 149.839 128.769 149.252C128.507 148.659 128.23 148.073 127.981 147.478C127.529 146.269 127.052 145.07 126.625 143.856L125.467 140.183C125.291 139.625 125.601 139.03 126.159 138.854C126.701 138.683 127.278 138.971 127.472 139.499L127.492 139.555L128.777 143.066C129.242 144.219 129.754 145.349 130.238 146.49C130.503 147.05 130.792 147.595 131.068 148.148C131.355 148.694 131.605 149.26 131.921 149.788C132.558 150.836 133.129 151.93 133.851 152.913L134.367 153.667C134.538 153.919 134.706 154.173 134.902 154.404L136.03 155.823C136.425 156.276 136.842 156.707 137.244 157.15C137.44 157.378 137.662 157.575 137.879 157.776L138.53 158.383C138.74 158.593 138.974 158.769 139.203 158.952L139.889 159.5C140.12 159.678 140.366 159.828 140.603 159.994C140.843 160.155 141.077 160.327 141.328 160.458C141.575 160.597 141.819 160.744 142.067 160.878L142.818 161.237C143.069 161.331 143.322 161.442 143.567 161.522L143.928 161.635L144.088 161.672L144.165 161.692L144.182 161.694L144.452 161.773C145.373 162.042 145.902 163.007 145.633 163.928C145.376 164.809 144.474 165.33 143.591 165.137Z" fill="#371A45"/>
<path d="M59.6402 156.109C60.119 153.2 60.6934 150.387 61.3304 147.555C61.9697 144.731 62.6841 141.926 63.4697 139.139C64.2483 136.351 65.145 133.592 66.1075 130.858C67.0825 128.127 68.1929 125.439 69.4112 122.799C69.6444 122.294 70.243 122.073 70.7477 122.306C71.2392 122.533 71.4606 123.105 71.2587 123.601L71.2493 123.623C70.1757 126.241 69.2062 128.903 68.3682 131.614C67.5426 134.329 66.7805 137.065 66.1349 139.834C65.4823 142.6 64.8993 145.382 64.3915 148.179C63.8876 150.968 63.4376 153.801 63.1035 156.571L63.0996 156.602C62.9838 157.56 62.1136 158.243 61.1551 158.127C60.1973 158.012 59.5142 157.141 59.63 156.183C59.6323 156.16 59.637 156.131 59.6402 156.109Z" fill="#371A45"/>
<path d="M60.4791 150.981C61.2483 148.128 62.0919 145.304 63.009 142.509C63.1827 141.979 63.7539 141.69 64.2844 141.864C64.7594 142.02 65.0403 142.497 64.9683 142.975C64.5403 145.847 64.1898 148.727 63.9167 151.605C63.8259 152.569 62.9706 153.276 62.0066 153.186C61.0425 153.094 60.3344 152.239 60.4259 151.275C60.4353 151.178 60.4518 151.084 60.476 150.993L60.4791 150.981Z" fill="#39005E"/>
<path d="M38.964 155.145C38.8552 152.205 38.9194 149.241 39.2817 146.286C39.6518 143.334 40.2739 140.382 41.3248 137.54C42.3639 134.699 43.8311 131.966 45.7897 129.57C46.7718 128.377 47.8673 127.263 49.0958 126.288C49.7046 125.795 50.3548 125.347 51.0317 124.93C51.3697 124.72 51.7219 124.525 52.0834 124.338C52.2673 124.246 52.4488 124.155 52.6436 124.069L52.9402 123.94L53.0991 123.876L53.2986 123.802L53.477 123.74C54.3464 123.438 55.2955 123.899 55.5976 124.768C55.765 125.251 55.6938 125.766 55.4513 126.173C55.373 126.303 55.2642 126.525 55.1719 126.711L54.891 127.311C54.7063 127.716 54.531 128.132 54.3589 128.551C54.0169 129.39 53.7024 130.249 53.4042 131.117C53.1084 131.986 52.8346 132.866 52.5771 133.754C52.3189 134.642 52.0849 135.539 51.8604 136.44L51.858 136.45C51.7477 136.89 51.3017 137.158 50.8611 137.048C50.4652 136.949 50.2085 136.578 50.2406 136.185C50.3165 135.238 50.4026 134.289 50.5152 133.341C50.6264 132.393 50.7578 131.444 50.9143 130.497C51.0732 129.548 51.2516 128.6 51.4652 127.651C51.574 127.176 51.6866 126.701 51.8158 126.224L52.0169 125.504C52.0943 125.254 52.1546 125.039 52.2649 124.74L54.4168 127.111L54.2744 127.169L54.0787 127.254C53.9465 127.313 53.8072 127.382 53.6711 127.451C53.3964 127.594 53.121 127.745 52.8502 127.913C52.3095 128.248 51.7759 128.612 51.2719 129.022C50.2547 129.828 49.329 130.768 48.4917 131.785C46.8211 133.829 45.5307 136.21 44.6035 138.747C43.6652 141.283 43.0932 143.975 42.7505 146.705C42.4148 149.439 42.3522 152.223 42.4547 155.007V155.016C42.4907 155.98 41.7379 156.791 40.7739 156.827C39.8099 156.862 38.9992 156.109 38.964 155.145Z" fill="#371A45"/>
<path d="M148.696 165.381C148.153 165.382 147.62 165.131 147.279 164.658C139.785 154.294 141.62 144.957 144.48 138.95C147.524 132.555 152.264 128.622 152.465 128.458C153.21 127.846 154.311 127.954 154.923 128.7C155.535 129.446 155.427 130.545 154.682 131.158C154.621 131.209 150.273 134.844 147.586 140.556C144.075 148.018 144.924 155.438 150.11 162.611C150.675 163.393 150.499 164.485 149.718 165.05C149.408 165.274 149.05 165.381 148.696 165.381Z" fill="#371A45"/>
<path d="M159.628 153.825C159.448 153.377 159.326 153.004 159.193 152.598C159.064 152.2 158.941 151.804 158.83 151.407C158.603 150.613 158.398 149.818 158.218 149.022C157.858 147.429 157.582 145.829 157.39 144.231C157.362 144.005 157.523 143.801 157.749 143.774C157.934 143.751 158.107 143.857 158.176 144.021L158.178 144.023C158.795 145.48 159.482 146.897 160.233 148.262C160.609 148.945 161.004 149.614 161.413 150.267C161.616 150.594 161.827 150.915 162.039 151.23C162.248 151.536 162.479 151.872 162.677 152.117C163.29 152.88 163.169 153.994 162.406 154.607C161.644 155.22 160.529 155.099 159.916 154.337C159.807 154.2 159.721 154.053 159.657 153.898L159.628 153.825Z" fill="#371A45"/>
<path d="M181.849 136.879C181.849 137.038 181.841 137.107 181.835 137.211L181.807 137.486C181.786 137.667 181.76 137.841 181.729 138.014C181.669 138.36 181.592 138.699 181.496 139.032C181.309 139.7 181.054 140.349 180.724 140.966C180.072 142.198 179.1 143.29 177.936 144.022C177.355 144.389 176.739 144.67 176.114 144.886C175.485 145.081 174.854 145.235 174.222 145.303C172.962 145.465 171.725 145.406 170.527 145.241C170.225 145.199 170.013 144.918 170.054 144.616C170.092 144.343 170.32 144.145 170.585 144.137H170.59C171.726 144.101 172.848 143.955 173.879 143.637C174.398 143.49 174.881 143.272 175.34 143.042C175.789 142.792 176.201 142.504 176.562 142.177C177.284 141.52 177.783 140.694 178.076 139.791C178.225 139.339 178.32 138.866 178.367 138.387C178.392 138.149 178.403 137.909 178.403 137.673C178.403 137.555 178.399 137.438 178.392 137.327L178.378 137.163C178.373 137.121 178.365 137.044 178.36 137.057C178.311 136.093 179.052 135.273 180.016 135.223C180.979 135.174 181.8 135.916 181.849 136.879Z" fill="#371A45"/>
<path d="M98.9997 248.716C98.0717 246.419 97.592 243.773 98.0372 241.103C98.2626 239.778 98.7188 238.467 99.4215 237.284C99.7791 236.695 100.188 236.137 100.672 235.613C100.929 235.348 101.15 235.108 101.56 234.807C101.857 234.599 102.128 234.436 102.41 234.271C104.631 233.004 107.054 232.281 109.516 232.079C111.972 231.869 114.438 232.22 116.668 233.046C117.012 233.173 117.187 233.555 117.061 233.9C116.953 234.191 116.663 234.361 116.368 234.331L116.359 234.329C114.148 234.098 111.968 234.178 109.905 234.665C108.876 234.907 107.876 235.238 106.919 235.652C105.971 236.079 105.046 236.566 104.229 237.148C104.03 237.29 103.825 237.444 103.667 237.58C103.621 237.624 103.449 237.803 103.324 237.961C103.053 238.295 102.807 238.68 102.598 239.082C102.179 239.89 101.897 240.778 101.758 241.706C101.473 243.567 101.753 245.569 102.303 247.577L102.309 247.6C102.563 248.531 102.015 249.493 101.083 249.748C100.218 249.985 99.3268 249.528 98.9997 248.716Z" fill="#371A45"/>
<path d="M64.704 230.452C64.8253 230.427 64.9075 230.417 64.9951 230.404C65.0851 230.391 65.1704 230.38 65.2534 230.371C65.4208 230.351 65.5891 230.332 65.7526 230.321C66.082 230.29 66.4068 230.277 66.7315 230.263C67.3794 230.243 68.0226 230.254 68.6627 230.289C69.9413 230.358 71.2066 230.551 72.4391 230.854C73.0588 230.986 73.6613 231.197 74.2631 231.38C74.8531 231.614 75.4493 231.812 76.0127 232.098C77.1638 232.603 78.2186 233.292 79.228 234.003C79.5097 234.202 79.5778 234.591 79.3791 234.874C79.1999 235.128 78.8657 235.208 78.595 235.075L78.5566 235.056C77.5198 234.55 76.4775 234.079 75.375 233.792C74.8374 233.615 74.2732 233.526 73.7263 233.401C73.1652 233.325 72.6151 233.221 72.0517 233.193C70.9343 233.1 69.8122 233.107 68.7073 233.221C68.1549 233.279 67.6071 233.355 67.0695 233.459C66.8019 233.514 66.5343 233.567 66.2761 233.633C66.1438 233.663 66.0186 233.699 65.8934 233.734C65.8301 233.751 65.769 233.769 65.7127 233.787C65.6556 233.806 65.5914 233.825 65.5679 233.837C64.6907 234.277 63.6234 233.924 63.1836 233.046C62.7431 232.17 63.0968 231.102 63.974 230.662C64.1172 230.59 64.2658 230.539 64.4161 230.509L64.704 230.452Z" fill="#371A45"/>
<path d="M121.454 223.724C112.269 223.724 105.068 222.26 104.574 222.157C103.631 221.96 103.024 221.035 103.221 220.09C103.417 219.146 104.343 218.541 105.286 218.736C105.48 218.777 124.775 222.688 140.118 217.57C141.033 217.266 142.022 217.759 142.328 218.675C142.633 219.59 142.138 220.579 141.223 220.885C134.692 223.062 127.625 223.724 121.454 223.724Z" fill="#371A45"/>
<path d="M81.1532 224.234C71.8093 224.234 63.9781 221.789 63.4546 221.622C62.5351 221.328 62.0281 220.346 62.3215 219.426C62.6142 218.508 63.5962 218.001 64.5156 218.293C64.7105 218.355 84.1314 224.397 97.3783 217.135C98.2242 216.671 99.286 216.981 99.7501 217.827C100.214 218.673 99.9042 219.735 99.0583 220.199C93.447 223.275 87.0031 224.234 81.1532 224.234Z" fill="#371A45"/>
<path d="M101.04 206.378C100.328 206.378 99.6599 205.939 99.4001 205.232L95.6426 194.983C95.31 194.077 95.7756 193.074 96.681 192.741C97.5863 192.41 98.5903 192.874 98.9228 193.78L102.68 204.029C103.013 204.935 102.547 205.938 101.642 206.271C101.443 206.344 101.24 206.378 101.04 206.378Z" fill="#371A45"/>
<path d="M70.2938 184.432C71.0544 184.935 71.9128 185.431 72.7486 185.892C73.5983 186.348 74.4513 186.796 75.323 187.206C77.0601 188.039 78.8497 188.755 80.6565 189.401C81.108 189.563 81.5611 189.72 82.0204 189.86C82.4766 190.008 82.9336 190.152 83.396 190.279C84.3123 190.56 85.2404 190.798 86.17 191.022C88.0331 191.462 89.9174 191.801 91.8134 192.037C92.7602 192.17 93.7149 192.221 94.6656 192.317C95.6195 192.364 96.5733 192.444 97.5296 192.436C98.0077 192.438 98.4858 192.453 98.9639 192.445L100.399 192.419C100.878 192.421 101.355 192.371 101.833 192.348C102.311 192.313 102.791 192.299 103.268 192.25C107.095 191.929 110.898 191.233 114.697 190.313L114.702 190.312C115.156 190.202 115.613 190.481 115.723 190.935C115.821 191.339 115.61 191.745 115.242 191.907C111.56 193.53 107.618 194.605 103.595 195.185C101.579 195.436 99.5445 195.628 97.5053 195.605C96.4857 195.625 95.4669 195.555 94.4481 195.517C93.4308 195.44 92.4143 195.35 91.4049 195.203C89.3853 194.926 87.3743 194.558 85.4125 194.004C84.4313 193.731 83.4539 193.443 82.4922 193.112C82.0087 192.954 81.5337 192.771 81.0587 192.589C80.5822 192.413 80.1111 192.22 79.6432 192.022C77.7659 191.244 75.9505 190.324 74.2056 189.292C73.3378 188.766 72.4794 188.225 71.6546 187.633C70.8197 187.041 70.0364 186.432 69.243 185.716C68.9026 185.41 68.8752 184.884 69.1827 184.544C69.4613 184.235 69.9198 184.184 70.2563 184.407L70.2938 184.432Z" fill="#371A45"/>
<path d="M140.796 162.093C138.678 162.264 136.642 162.333 134.72 162.333C124.536 162.333 117.408 160.32 117.02 160.207C114.701 159.534 113.365 157.115 114.037 154.796C114.706 152.481 117.125 151.149 119.44 151.813C119.575 151.852 124.851 153.31 132.572 153.559C135.607 158.315 138.638 160.805 140.796 162.093Z" fill="white"/>
<path d="M118.232 153.389C117.096 153.389 116.045 154.135 115.715 155.28C115.518 155.955 115.597 156.663 115.935 157.275C116.273 157.888 116.83 158.333 117.505 158.529C117.578 158.55 124.67 160.586 134.719 160.586C135.147 160.586 135.575 160.583 136.002 160.576C134.613 159.245 133.109 157.514 131.602 155.271C124.094 154.931 119.002 153.505 118.951 153.491C118.711 153.422 118.47 153.389 118.232 153.389ZM134.719 164.08C124.176 164.08 116.837 161.974 116.529 161.884C114.963 161.43 113.664 160.392 112.876 158.963C112.086 157.531 111.903 155.879 112.358 154.309C113.29 151.08 116.682 149.206 119.92 150.134C119.971 150.148 125.066 151.57 132.627 151.814C133.203 151.832 133.733 152.134 134.043 152.62C136.948 157.171 139.805 159.468 141.69 160.594C142.342 160.983 142.668 161.75 142.495 162.49C142.323 163.23 141.691 163.774 140.934 163.834C138.904 163.998 136.813 164.08 134.719 164.08Z" fill="#371A45"/>
<path d="M62.5023 143.663C62.4146 143.826 62.4389 143.954 62.4232 143.925C62.4561 143.919 62.2769 143.846 62.172 143.799C62.0523 143.746 61.9443 143.72 61.8254 143.684C61.3567 143.576 60.8441 143.615 60.3778 143.792C59.9122 143.977 59.5092 144.299 59.1915 144.677C58.8793 145.063 58.6688 145.525 58.5655 146.015C58.3503 146.987 58.6844 148.043 59.3754 148.737C59.7111 149.093 60.1438 149.35 60.6031 149.489C60.6649 149.506 60.7072 149.525 60.7831 149.544L61.0288 149.598L61.5202 149.707L62.5015 149.927L60.8183 151.043L61.165 148.866L61.5257 146.69L61.9013 144.515L62.0969 143.427L62.1439 143.155L62.1673 143.018L62.1728 142.985C62.176 142.97 62.1767 142.96 62.1728 142.979C62.1673 143 62.1634 143.022 62.1611 143.047C62.1321 143.242 62.273 143.538 62.5023 143.663ZM65.4711 141.821C65.6174 142.3 65.6745 142.951 65.5626 143.5L65.5188 143.701L65.4938 143.795L65.4554 143.924L65.3795 144.184C65.2762 144.529 65.1862 144.878 65.0915 145.227L64.543 147.321C64.3615 148.02 64.1964 148.723 64.0367 149.427C63.8787 150.131 63.7167 150.836 63.5743 151.543L63.5563 151.628C63.41 152.355 62.7018 152.826 61.9756 152.68C61.9482 152.674 61.9169 152.667 61.8903 152.66L60.8324 152.374L60.3042 152.231L60.0405 152.159C59.9474 152.132 59.8269 152.085 59.722 152.048C58.8582 151.733 58.0725 151.218 57.4575 150.543C56.2055 149.213 55.6867 147.26 56.0764 145.491C56.2665 144.613 56.6632 143.771 57.2407 143.073C57.8213 142.378 58.5655 141.834 59.3879 141.467C60.2134 141.106 61.1188 140.906 62.0476 140.902C62.2745 140.919 62.5187 140.91 62.7401 140.939C62.9749 140.972 63.1376 140.977 63.5109 141.057C64.1745 141.195 64.8795 141.491 65.4711 141.821Z" fill="#371A45"/>
<path d="M23.2928 122.047C23.3593 121.966 23.4031 121.922 23.4469 121.877C23.4923 121.829 23.5369 121.783 23.5792 121.744C23.6653 121.662 23.7513 121.576 23.8382 121.504C24.0096 121.35 24.1856 121.209 24.364 121.073C24.7193 120.799 25.0949 120.56 25.4767 120.338C26.2475 119.902 27.0856 119.58 27.9455 119.4C28.8032 119.217 29.6858 119.166 30.5286 119.284C30.9527 119.315 31.3588 119.43 31.7602 119.528C32.1601 119.632 32.5357 119.802 32.9144 119.936C33.2689 120.062 33.4543 120.452 33.3284 120.806C33.2219 121.105 32.9269 121.284 32.6249 121.256L32.5028 121.245C32.1569 121.213 31.822 121.145 31.4863 121.142C31.1507 121.145 30.8212 121.127 30.4996 121.186C29.8541 121.249 29.246 121.445 28.6913 121.716C28.1349 121.985 27.6263 122.339 27.1818 122.761C26.9627 122.978 26.7514 123.197 26.5652 123.434C26.4713 123.552 26.3821 123.67 26.3015 123.791C26.2577 123.85 26.2256 123.908 26.188 123.966C26.1685 123.997 26.1552 124.023 26.1419 124.048C26.127 124.075 26.1121 124.102 26.1231 124.096C25.5581 124.878 24.4658 125.052 23.684 124.487C22.9023 123.922 22.727 122.829 23.2928 122.047Z" fill="#371A45"/>
<path d="M51.4211 155.778C48.3552 155.778 45.0703 155.363 42.4262 154.032C42.3707 151.573 42.4544 149.12 42.751 146.705C43.0538 144.292 43.5358 141.906 44.2925 139.634C45.057 140.609 46.1447 141.362 47.3176 141.702C48.0266 141.908 48.752 141.997 49.4828 141.997C51.1981 141.997 52.9399 141.505 54.5565 140.876C57.9909 139.539 61.1796 137.577 63.9285 135.123L63.2877 139.784C63.1789 140.177 63.0709 140.572 62.9637 140.967C62.8902 140.958 62.8197 140.95 62.7407 140.939C62.5193 140.91 62.2751 140.919 62.0482 140.902C61.1194 140.906 60.214 141.106 59.3885 141.467C58.5661 141.834 57.8219 142.378 57.2413 143.073C56.6638 143.771 56.2671 144.613 56.0769 145.491C55.6873 147.26 56.2061 149.213 57.4581 150.543C58.0731 151.218 58.8587 151.733 59.7226 152.048C59.8275 152.085 59.948 152.132 60.0411 152.159L60.3048 152.231L60.3384 152.24C60.1663 153.118 60.002 154.002 59.8455 154.892C58.2186 155.223 54.9666 155.778 51.4211 155.778Z" fill="#D7D1DA"/>
<path d="M53.6155 156.447C49.7852 156.447 45.9611 155.658 42.4289 154.163C42.4281 154.12 42.4266 154.076 42.4258 154.032C45.0698 155.363 48.3548 155.778 51.4206 155.778C54.9661 155.778 58.2182 155.223 59.845 154.892C59.7949 155.181 59.7449 155.472 59.6963 155.763C57.6955 156.223 55.6547 156.447 53.6155 156.447Z" fill="#371A45"/>
<path d="M38.9281 151.435C32.9169 145.584 27.6249 133.862 27.5646 133.726C27.3471 133.241 26.9175 132.883 26.4026 132.751C26.2594 132.713 26.1139 132.695 25.9683 132.695C25.592 132.695 25.2195 132.818 24.9128 133.049C24.7547 133.168 22.2742 134.999 19.2635 134.999C17.6199 134.999 15.8185 134.452 14.1512 132.786C13.5731 132.207 13.4594 131.801 13.459 131.548C13.459 131.439 13.48 131.358 13.4938 131.304C13.5199 131.204 13.5571 131.102 13.6049 130.999C14.1896 131.03 14.7747 131.045 15.3601 131.045C19.7168 131.045 24.0739 130.185 28.1069 128.536C28.808 128.249 29.5381 128.111 30.2604 128.111C32.0241 128.111 33.7331 128.936 34.8192 130.435C36.6025 132.897 39.1472 134.818 42.0252 135.794C41.7733 136.37 41.5401 136.953 41.3249 137.54C40.274 140.382 39.6519 143.335 39.2818 146.286C39.0721 148.001 38.9618 149.72 38.9281 151.435Z" fill="#D7D1DA"/>
<path d="M38.9168 152.386C32.5269 148.578 27.6496 142.295 25.5603 135.154C24.0454 136.21 22.1971 136.764 20.3514 136.764C19.4489 136.764 18.5471 136.631 17.6855 136.36C15.0618 135.535 12.8682 133.445 11.918 130.865C12.4793 130.924 13.0418 130.969 13.6053 130.998C13.5575 131.102 13.5204 131.203 13.4942 131.304C13.4804 131.358 13.4594 131.439 13.4594 131.548C13.4598 131.801 13.5735 132.207 14.1516 132.786C15.819 134.452 17.6204 134.999 19.2639 134.999C22.2746 134.999 24.7551 133.168 24.9132 133.049C25.2199 132.818 25.5924 132.695 25.9688 132.695C26.1143 132.695 26.2599 132.713 26.4031 132.75C26.9179 132.883 27.3475 133.241 27.5651 133.726C27.6253 133.862 32.9174 145.583 38.9285 151.435C38.9223 151.752 38.9184 152.069 38.9168 152.386Z" fill="#371A45"/>
<path d="M59.6973 155.763C59.7458 155.472 59.7959 155.182 59.8459 154.892C60.0024 154.002 60.1668 153.118 60.3389 152.24L60.6582 152.326C60.8428 152.642 61.1245 152.896 61.4665 153.046L61.1449 155.386C60.6652 155.526 60.1824 155.651 59.6973 155.763ZM63.123 140.987C63.0667 140.979 63.0151 140.973 62.9642 140.967C63.0714 140.573 63.1794 140.177 63.2882 139.784L63.123 140.987Z" fill="#371A45"/>
<path d="M61.4665 153.046C61.1246 152.896 60.8429 152.641 60.6582 152.326L60.8335 152.374L61.533 152.562L61.4665 153.046Z" fill="#390559"/>
<path d="M42.4306 154.164C41.3852 153.721 40.3648 153.218 39.3781 152.654C39.2239 152.566 39.0706 152.476 38.918 152.386C38.9195 152.069 38.9234 151.752 38.9297 151.435C38.9634 149.72 39.0737 148.001 39.2834 146.286C39.6535 143.335 40.2756 140.382 41.3265 137.54C41.5417 136.953 41.7749 136.37 42.0268 135.794C42.4173 135.926 42.8133 136.041 43.2147 136.138C43.0652 137.4 43.5105 138.634 44.2937 139.634C43.5371 141.906 43.055 144.292 42.7522 146.705C42.4557 149.12 42.3719 151.573 42.4275 154.032C42.4283 154.076 42.4298 154.12 42.4306 154.164Z" fill="#371A45"/>
<path d="M60.868 149.562L60.7843 149.544C60.7084 149.525 60.6662 149.506 60.6043 149.489C60.145 149.35 59.7123 149.093 59.3766 148.737C58.6856 148.043 58.3515 146.987 58.5667 146.015C58.67 145.525 58.8805 145.063 59.1927 144.677C59.5104 144.299 59.9134 143.977 60.379 143.792C60.6724 143.68 60.9831 143.624 61.2906 143.624C61.4721 143.624 61.6521 143.644 61.8266 143.684C61.9001 143.706 61.9698 143.725 62.0402 143.749L61.9025 144.515L61.5269 146.69L61.5253 146.702C61.4596 146.987 61.3939 147.271 61.3297 147.555C61.2029 148.119 61.0785 148.681 60.9572 149.244C60.9275 149.35 60.8978 149.456 60.868 149.562Z" fill="#D7D1DA"/>
<path d="M60.957 149.244C61.0783 148.681 61.2027 148.119 61.3295 147.556C61.3937 147.271 61.4594 146.987 61.5251 146.703L61.3068 148.02C61.1887 148.427 61.0721 148.835 60.957 149.244Z" fill="#371A45"/>
<path d="M61.0487 149.603L61.0292 149.599L60.8672 149.563C60.8969 149.456 60.9267 149.35 60.9564 149.244C61.0714 148.835 61.188 148.427 61.3062 148.02L61.1653 148.866L61.0487 149.603Z" fill="#390559"/>
<path d="M62.1582 143.069C62.159 143.062 62.1598 143.054 62.1613 143.047C62.1637 143.022 62.1676 143 62.1731 142.979C62.1746 142.972 62.1754 142.968 62.1754 142.968C62.1762 142.968 62.1746 142.975 62.1731 142.985L62.1676 143.018L62.1582 143.069Z" fill="#D7D1DA"/>
<path d="M61.532 152.562L60.8324 152.374L60.6571 152.326L60.3379 152.24L60.3042 152.231L60.0405 152.159C59.9474 152.132 59.8269 152.085 59.722 152.048C58.8582 151.733 58.0725 151.218 57.4575 150.543C56.2055 149.213 55.6867 147.26 56.0764 145.491C56.2665 144.613 56.6632 143.771 57.2407 143.073C57.8213 142.378 58.5655 141.834 59.3879 141.467C60.2134 141.106 61.1188 140.906 62.0476 140.902C62.2745 140.919 62.5187 140.91 62.7401 140.939C62.8192 140.95 62.8896 140.958 62.9631 140.967C63.014 140.973 63.0657 140.979 63.122 140.987L61.532 152.562ZM60.8668 149.562L61.0288 149.598L61.0484 149.602L61.165 148.866L61.3058 148.019L61.5241 146.702L61.5257 146.69L61.9013 144.514L62.039 143.748C61.9686 143.725 61.8989 143.706 61.8254 143.684C61.6509 143.644 61.4709 143.624 61.2894 143.624C60.9819 143.624 60.6712 143.68 60.3778 143.792C59.9122 143.977 59.5092 144.299 59.1915 144.677C58.8793 145.063 58.6688 145.525 58.5655 146.015C58.3503 146.987 58.6844 148.043 59.3754 148.737C59.7111 149.093 60.1438 149.35 60.6031 149.489C60.6649 149.506 60.7072 149.525 60.7831 149.544L60.8668 149.562ZM62.1752 142.968C62.1752 142.968 62.1744 142.971 62.1728 142.979C62.1673 143 62.1634 143.022 62.1611 143.047C62.1595 143.054 62.1587 143.062 62.158 143.069L62.1673 143.018L62.1728 142.985C62.1744 142.975 62.176 142.968 62.1752 142.968Z" fill="#371A45"/>
<path d="M111.268 172.286L67.0389 166.21C63.9934 165.792 61.865 162.985 62.2828 159.94L65.8268 134.144C66.2446 131.099 69.0522 128.97 72.0969 129.389L116.326 135.465C119.371 135.884 121.5 138.69 121.082 141.735L117.538 167.531C117.12 170.576 114.313 172.705 111.268 172.286Z" fill="white"/>
<path d="M71.3362 131.083C69.4597 131.083 67.8188 132.472 67.5567 134.382L64.0128 160.178C63.7264 162.263 65.1896 164.193 67.275 164.479L111.505 170.555C113.589 170.845 115.52 169.378 115.806 167.293L119.35 141.497C119.637 139.412 118.174 137.482 116.087 137.196L71.8581 131.119C71.6828 131.095 71.5083 131.083 71.3362 131.083ZM112.029 174.085C111.699 174.085 111.366 174.063 111.029 174.017L66.7993 167.941C62.8054 167.391 60.0025 163.696 60.551 159.702L64.0949 133.907C64.6442 129.913 68.3384 127.112 72.3339 127.658L116.563 133.734C120.557 134.283 123.361 137.979 122.811 141.973L119.268 167.769C118.765 171.427 115.623 174.085 112.029 174.085Z" fill="#371A45"/>
<path d="M71.3362 131.084C69.4598 131.084 67.8188 132.472 67.5567 134.382L64.0128 160.178C63.7264 162.263 65.1896 164.193 67.275 164.479L103.438 169.447C104.449 169.589 105.452 169.324 106.265 168.707C107.078 168.091 107.602 167.195 107.74 166.185L111.284 140.389C111.571 138.304 110.107 136.374 108.021 136.088L71.8581 131.12C71.6828 131.095 71.5083 131.084 71.3362 131.084ZM103.973 172.978C103.639 172.978 103.301 172.955 102.962 172.909L66.7993 167.941C62.8054 167.392 60.0025 163.696 60.551 159.702L64.0949 133.907C64.6442 129.913 68.3384 127.113 72.3339 127.658L108.497 132.626C112.491 133.175 115.294 136.871 114.745 140.865L111.201 166.66C110.935 168.595 109.932 170.31 108.377 171.491C107.092 172.465 105.558 172.978 103.973 172.978Z" fill="#371A45"/>
<path d="M105.15 148.292C105.15 151.599 102.469 154.281 99.1611 154.281C95.8527 154.281 93.1719 151.599 93.1719 148.292C93.1719 144.984 95.8527 142.302 99.1611 142.302C102.469 142.302 105.15 144.984 105.15 148.292Z" fill="#4599F4"/>
<path d="M93.1719 148.34C93.1719 148.339 93.1719 148.336 93.1719 148.335C93.1719 148.336 93.1719 148.339 93.1719 148.34ZM93.1719 148.327C93.1719 148.322 93.1719 148.318 93.1719 148.313C93.1719 148.318 93.1719 148.322 93.1719 148.327ZM93.1719 148.309C93.1719 148.303 93.1719 148.297 93.1719 148.292C93.1719 148.297 93.1719 148.303 93.1719 148.309ZM105.15 148.305C105.15 148.301 105.15 148.297 105.15 148.292C105.15 148.297 105.15 148.3 105.15 148.305Z" fill="white"/>
<path d="M93.7893 150.927C93.4043 150.145 93.1797 149.27 93.1719 148.34C93.1719 148.339 93.1719 148.336 93.1719 148.335C93.1719 148.332 93.1719 148.33 93.1719 148.327C93.1719 148.322 93.1719 148.318 93.1719 148.313C93.1719 148.311 93.1719 148.31 93.1719 148.309C93.1719 148.303 93.1719 148.297 93.1719 148.292C93.1719 144.984 95.8527 142.303 99.1611 142.303C102.469 142.303 105.15 144.984 105.15 148.292C105.15 148.296 105.15 148.301 105.15 148.305C105.15 148.543 105.132 148.776 105.104 149.006C104.128 147.022 102.092 145.653 99.7316 145.653C96.6665 145.653 94.143 147.957 93.7893 150.927Z" fill="#C7E0FC"/>
<path d="M99.1604 144.049C96.8207 144.049 94.9177 145.952 94.9177 148.292C94.9177 150.63 96.8207 152.533 99.1604 152.533C101.499 152.533 103.403 150.63 103.403 148.292C103.403 145.952 101.499 144.049 99.1604 144.049ZM99.1604 156.027C94.8942 156.027 91.4238 152.557 91.4238 148.292C91.4238 144.025 94.8942 140.555 99.1604 140.555C103.426 140.555 106.896 144.025 106.896 148.292C106.896 152.557 103.426 156.027 99.1604 156.027Z" fill="#371A45"/>
<path d="M83.3132 169.189C83.2435 169.189 83.1731 169.185 83.1027 169.176C82.1449 169.061 81.4618 168.191 81.5768 167.233L82.9368 155.904C83.0745 154.755 82.6324 153.619 81.7544 152.865L79.1244 150.61C77.3748 149.11 76.4835 146.847 76.741 144.557L78.3412 130.29C78.4484 129.332 79.3138 128.646 80.2716 128.749C81.2309 128.857 81.9203 129.721 81.8131 130.68L80.2129 144.946C80.0846 146.086 80.5283 147.212 81.3984 147.958L84.0284 150.213C85.7945 151.727 86.6834 154.011 86.4056 156.321L85.0456 167.65C84.9384 168.537 84.1849 169.189 83.3132 169.189Z" fill="#371A45"/>
<path d="M112.032 170.592C111.858 170.592 111.682 170.581 111.505 170.556L109.619 170.297C110.467 169.265 111.015 168.016 111.201 166.66L111.947 161.232C112.942 161.092 113.904 160.82 114.802 160.349C115.655 159.901 116.383 159.309 117 158.61L115.806 167.293C115.544 169.202 113.906 170.592 112.032 170.592ZM103.97 169.485C103.807 169.485 103.642 169.474 103.477 169.453L85.1309 166.933L86.1004 158.859C92.8933 159.688 99.6955 160.447 106.505 161.137C107.133 161.201 107.771 161.263 108.411 161.305L107.74 166.185C107.602 167.195 107.078 168.091 106.265 168.707C105.596 169.215 104.797 169.485 103.97 169.485Z" fill="#D7D1DA"/>
<path d="M110.85 172.329C109.961 172.329 109.055 172.217 108.181 172.099C107.981 172.072 107.78 172.045 107.58 172.018C107.854 171.861 108.12 171.685 108.377 171.491C108.842 171.137 109.258 170.737 109.619 170.296L111.505 170.555C111.682 170.58 111.858 170.592 112.032 170.592C113.906 170.592 115.544 169.201 115.806 167.293L117 158.61C119.001 156.343 119.829 152.965 119.954 149.841C120.117 145.755 119.445 141.573 120.503 137.623C121.121 147.094 119.941 156.765 117.334 166.036C116.73 168.185 115.899 170.507 113.963 171.616C113.017 172.158 111.947 172.329 110.85 172.329ZM103.477 169.453C103.464 169.451 103.452 169.449 103.438 169.447L85.1309 166.932L103.477 169.453Z" fill="#371A45"/>
<path d="M107.581 172.019C99.8205 170.972 92.062 169.926 84.3027 168.88C84.7002 168.605 84.9827 168.168 85.0453 167.65L85.1314 166.932L103.439 169.447C103.452 169.449 103.465 169.451 103.477 169.453C103.642 169.474 103.807 169.485 103.971 169.485C104.797 169.485 105.596 169.215 106.265 168.707C107.078 168.091 107.602 167.195 107.741 166.185L108.412 161.305C108.93 161.338 109.45 161.36 109.966 161.36C110.635 161.36 111.298 161.324 111.948 161.232L111.202 166.66C111.016 168.016 110.467 169.265 109.62 170.296C109.258 170.737 108.843 171.137 108.377 171.491C108.12 171.685 107.854 171.861 107.581 172.019Z" fill="#371A45"/>
<path d="M81.6689 166.457L67.2748 164.479C65.3647 164.217 63.9766 162.575 63.9766 160.699C63.9766 160.527 63.9883 160.352 64.0126 160.178L64.5869 155.997C70.5942 156.862 76.6108 157.673 82.6329 158.43L81.6689 166.457Z" fill="#D7D1DA"/>
<path d="M81.6689 166.457L67.2748 164.479C65.3647 164.217 63.9766 162.575 63.9766 160.699C63.9766 162.575 65.3647 164.217 67.2748 164.479L81.6689 166.457Z" fill="#371A45"/>
<path d="M81.9739 168.566C79.5098 168.234 77.0465 167.902 74.5816 167.569C71.3202 167.13 67.8811 166.616 65.3137 164.557C62.7471 162.497 61.5718 158.327 63.7714 155.879C64.0437 155.918 64.316 155.957 64.5883 155.997L64.014 160.178C63.9897 160.353 63.978 160.527 63.978 160.699C63.978 162.576 65.3661 164.217 67.2762 164.479L81.6703 166.457L81.5772 167.234C81.5169 167.734 81.6742 168.21 81.9739 168.566Z" fill="#371A45"/>
<path d="M84.3034 168.88C83.5272 168.775 82.7502 168.671 81.9739 168.566C81.6742 168.209 81.5169 167.734 81.5772 167.233L81.6703 166.456L82.6343 158.43C83.7901 158.574 84.9451 158.718 86.1016 158.858L85.1321 166.932L85.046 167.65C84.9834 168.168 84.7009 168.605 84.3034 168.88Z" fill="#371A45"/>
<path d="M170.546 144.14C169.596 143.822 168.711 143.314 167.976 142.632C166.93 141.661 166.16 140.137 166.706 138.819C167.117 137.825 168.147 137.243 169.146 136.847C170.811 136.187 172.596 135.846 174.359 135.846C175.751 135.846 177.128 136.058 178.422 136.495C178.372 136.672 178.349 136.862 178.359 137.056V137.056C178.363 137.135 178.373 137.215 178.388 137.294L178.391 137.326C178.398 137.438 178.402 137.555 178.402 137.673C178.402 137.909 178.392 138.149 178.366 138.387C178.32 138.866 178.224 139.339 178.075 139.791C177.782 140.694 177.284 141.52 176.561 142.177C176.2 142.504 175.788 142.791 175.339 143.042C174.88 143.272 174.398 143.489 173.878 143.636C172.848 143.955 171.725 144.101 170.589 144.137H170.585C170.572 144.137 170.559 144.138 170.546 144.14Z" fill="#D7D1DA"/>
<path d="M178.388 137.294C178.373 137.215 178.363 137.136 178.359 137.056L178.36 137.055C178.366 137.055 178.373 137.124 178.377 137.163L178.388 137.294Z" fill="#371A45"/>
<path d="M172.953 144.531C172.138 144.531 171.321 144.398 170.547 144.14C170.559 144.138 170.573 144.137 170.585 144.136H170.59C171.726 144.1 172.848 143.955 173.879 143.636C174.398 143.489 174.881 143.272 175.34 143.042C175.789 142.791 176.2 142.504 176.562 142.177C177.284 141.52 177.783 140.694 178.076 139.79C178.225 139.339 178.32 138.865 178.366 138.387C178.392 138.149 178.402 137.908 178.402 137.673C178.402 137.555 178.398 137.438 178.391 137.326L178.389 137.294L178.378 137.163C178.373 137.124 178.366 137.055 178.361 137.055L178.36 137.056V137.056C178.35 136.861 178.373 136.672 178.423 136.494C179.003 136.69 179.566 136.93 180.106 137.217C180.154 140.027 178.397 142.787 175.83 143.932C174.927 144.336 173.941 144.531 172.953 144.531Z" fill="#371A45"/>
<path d="M161.919 50.2349C161.919 50.2349 174.278 56.261 175.377 58.7509C177.414 63.3684 174.599 89.1549 167.234 95.271C164.351 97.6662 144.711 98.354 144.711 98.354L161.919 50.2349Z" fill="white"/>
<path d="M144.711 98.355C144.711 98.355 164.351 97.6656 167.233 95.2704C170.107 92.8845 172.292 87.4962 173.758 81.5422C173.526 81.7159 166.127 87.0064 153.549 73.725C153.543 73.7172 153.533 73.7094 153.527 73.7015L144.711 98.355Z" fill="#E2E2E2"/>
<path d="M103.95 72.1138L103.93 72.3345L103.799 72.2132L103.95 72.1138Z" fill="#D8D8D8"/>
<path d="M103.8 72.2131L103.65 72.3086L103.67 72.0887L103.8 72.2131Z" fill="#D8D8D8"/>
<path d="M59.4829 90.5566C59.4829 90.5566 40.2945 86.3155 37.8946 83.4367C35.5017 80.5688 34.331 74.8738 33.9695 68.7523L33.9656 68.7484C33.3967 59.194 34.7818 48.5904 36.5142 46.0473C38.0464 43.7976 51.2941 40.1128 51.2941 40.1128L55.288 64.7138L59.4829 90.5566Z" fill="white"/>
<path d="M59.4822 90.5566C59.4822 90.5566 40.2937 86.3155 37.8938 83.4367C35.5009 80.5688 34.3303 74.8738 33.9688 68.7523C34.1652 68.9651 40.4807 75.5107 55.2606 64.7326C55.2676 64.7263 55.2794 64.7201 55.2872 64.7138L59.4822 90.5566Z" fill="#D8D8D8"/>
<path d="M162.902 52.6772L147.231 96.4987C155.734 96.0785 164.761 95.055 166.118 93.9274C168.953 91.5737 171.567 84.9263 173.111 76.1467C174.605 67.6542 174.459 60.9967 173.779 59.4567C173.151 58.3558 167.951 55.25 162.902 52.6772ZM144.712 100.101C144.155 100.101 143.631 99.8353 143.302 99.3846C142.96 98.9174 142.872 98.311 143.067 97.7656L160.275 49.6473C160.441 49.1794 160.8 48.8046 161.26 48.6176C161.72 48.4305 162.239 48.4478 162.685 48.6653C166.574 50.5613 175.751 55.2704 176.976 58.0459C179.257 63.2159 176.465 89.8764 168.351 96.6153C165.25 99.1913 149.52 99.9331 144.773 100.1C144.752 100.101 144.732 100.101 144.712 100.101Z" fill="#371A45"/>
<path d="M49.8839 42.337C44.451 43.9505 38.7724 46.064 37.9398 47.0523C37.0078 48.4217 35.6564 54.9415 35.5844 63.5638C35.5101 72.4781 36.8748 79.4893 39.2348 82.318C40.3655 83.6741 49.0568 86.319 57.3426 88.2744L49.8839 42.337ZM59.4828 92.3027C59.3576 92.3027 59.2308 92.2894 59.1056 92.262C54.4677 91.237 39.1339 87.6523 36.5516 84.5568C29.7955 76.4571 31.8871 49.7324 35.0688 45.0632C36.777 42.5553 46.656 39.5896 50.8244 38.4307C51.3025 38.2977 51.8159 38.3744 52.2345 38.6428C52.6531 38.9104 52.9372 39.3439 53.017 39.8338L61.2074 90.2761C61.2997 90.8473 61.1033 91.4279 60.6831 91.8254C60.3553 92.1353 59.9241 92.3027 59.4828 92.3027Z" fill="#371A45"/>
<path d="M164.482 66.792C161.483 99.5765 132.474 123.723 99.6891 120.723C66.9047 117.723 42.7583 88.7146 45.7576 55.9294C48.7577 23.145 77.7666 -1.00141 110.552 1.99791C143.336 4.99802 167.483 34.0069 164.482 66.792Z" fill="white"/>
<path d="M164.484 66.7901C161.484 99.5753 132.476 123.721 99.691 120.721C66.9058 117.721 42.7563 88.7126 45.7556 55.9274C46.0725 52.4664 46.679 49.0993 47.553 45.8543C49.8121 74.2418 72.2253 97.7293 101.549 100.413C130.872 103.095 157.171 84.0638 164.545 56.5581C164.815 59.9072 164.8 63.3283 164.484 66.7901Z" fill="#D8D8D8"/>
<path d="M105.018 3.17632C91.4593 3.17632 78.4503 7.86427 67.9006 16.6447C55.9565 26.5864 48.5995 40.5845 47.1831 56.06C45.7676 71.5355 50.4634 86.6362 60.405 98.5795C70.3459 110.524 84.3441 117.881 99.8196 119.297C115.296 120.714 130.396 116.018 142.339 106.076C154.283 96.1342 161.641 82.1368 163.057 66.6613L164.482 66.792L163.057 66.6613C164.473 51.1858 159.777 36.0851 149.835 24.1411C139.894 12.1978 125.896 4.83991 110.421 3.42437C108.614 3.25848 106.81 3.17632 105.018 3.17632ZM105.228 122.408C103.346 122.408 101.456 122.322 99.5582 122.148C83.3213 120.663 68.6346 112.944 58.2039 100.412C47.7731 87.8796 42.8465 72.0363 44.3317 55.7995C45.8177 39.5618 53.537 24.8751 66.0688 14.4443C78.6005 4.01282 94.4461 -0.913033 110.681 0.572159C126.919 2.05812 141.606 9.77747 152.037 22.3092C162.467 34.841 167.394 50.685 165.908 66.9219C164.423 83.1596 156.703 97.8463 144.172 108.277C133.103 117.489 119.452 122.408 105.228 122.408Z" fill="#371A45"/>
<path d="M105.018 3.17632C91.4593 3.17632 78.4503 7.86427 67.9006 16.6447C55.9565 26.5864 48.5995 40.5845 47.1831 56.06C45.7676 71.5355 50.4634 86.6362 60.405 98.5795C70.3459 110.524 84.3441 117.881 99.8196 119.297C115.296 120.714 130.396 116.018 142.339 106.076C154.283 96.1342 161.641 82.1368 163.057 66.6613L164.482 66.792L163.057 66.6613C164.473 51.1858 159.777 36.0851 149.835 24.1411C139.894 12.1978 125.896 4.83991 110.421 3.42437C108.614 3.25848 106.81 3.17632 105.018 3.17632ZM105.228 122.408C103.346 122.408 101.456 122.322 99.5582 122.148C83.3213 120.663 68.6346 112.944 58.2039 100.412C47.7731 87.8796 42.8465 72.0363 44.3317 55.7995C45.8177 39.5618 53.537 24.8751 66.0688 14.4443C78.6005 4.01282 94.4461 -0.913033 110.681 0.572159C126.919 2.05812 141.606 9.77747 152.037 22.3092C162.467 34.841 167.394 50.685 165.908 66.9219C164.423 83.1596 156.703 97.8463 144.172 108.277C133.103 117.489 119.452 122.408 105.228 122.408Z" fill="#371A45"/>
<path d="M105.018 3.17632C91.4593 3.17632 78.4503 7.86427 67.9006 16.6447C55.9565 26.5864 48.5995 40.5845 47.1831 56.06C45.7676 71.5355 50.4634 86.6362 60.405 98.5795C70.3459 110.524 84.3441 117.881 99.8196 119.297C115.296 120.714 130.396 116.018 142.339 106.076C154.283 96.1342 161.641 82.1368 163.057 66.6613L164.482 66.792L163.057 66.6613C164.473 51.1858 159.777 36.0851 149.835 24.1411C139.894 12.1978 125.896 4.83991 110.421 3.42437C108.614 3.25848 106.81 3.17632 105.018 3.17632ZM105.228 122.408C103.346 122.408 101.456 122.322 99.5582 122.148C83.3213 120.663 68.6346 112.944 58.2039 100.412C47.7731 87.8796 42.8465 72.0363 44.3317 55.7995C45.8177 39.5618 53.537 24.8751 66.0688 14.4443C78.6005 4.01282 94.4461 -0.913033 110.681 0.572159C126.919 2.05812 141.606 9.77747 152.037 22.3092C162.467 34.841 167.394 50.685 165.908 66.9219C164.423 83.1596 156.703 97.8463 144.172 108.277C133.103 117.489 119.452 122.408 105.228 122.408Z" fill="#371A45"/>
<path d="M164.481 66.7911H164.485H164.481ZM48.0125 70.7318C52.2568 96.7374 73.5689 116.578 99.8476 118.982C126.126 121.385 150.687 105.744 159.584 80.9372C159.599 80.8941 159.616 80.8519 159.635 80.8096C161.251 76.2656 162.297 71.4963 162.742 66.6323C162.938 64.478 163.016 62.3019 162.972 60.1633C162.403 30.685 139.798 6.42906 110.392 3.73883C80.9933 1.04546 54.3656 20.7942 48.4523 49.6677C48.0172 51.7569 47.6964 53.9151 47.4976 56.0889C47.0524 60.9592 47.2167 65.838 47.9859 70.5925C47.9961 70.6387 48.0054 70.6848 48.0125 70.7318ZM105.162 122.719C103.295 122.719 101.417 122.633 99.5292 122.461C71.6925 119.914 49.1119 98.9167 44.5781 71.3813C44.5695 71.3437 44.5617 71.3054 44.5554 71.2662C43.7236 66.1855 43.5428 60.9724 44.0186 55.7704C44.2291 53.4651 44.5695 51.1748 45.0304 48.9619C51.3005 18.3473 79.5394 -2.59003 110.71 0.259056C141.892 3.11205 165.862 28.8352 166.465 60.0937C166.512 62.3598 166.43 64.6674 166.221 66.9508C165.745 72.145 164.624 77.2383 162.887 82.0906C162.873 82.1281 162.858 82.1649 162.843 82.2017C154.024 106.676 130.815 122.718 105.162 122.719Z" fill="#371A45"/>
<path d="M103.894 7.38676C105.929 7.38676 107.975 7.47911 110.033 7.66769C128.533 9.36024 144.91 18.5178 155.543 32.3243C146.288 16.2987 129.633 5.18013 110.421 3.42263C91.218 1.66435 72.8253 9.57308 60.8147 23.6463C72.3347 13.3017 87.6498 7.38676 103.894 7.38676ZM163.838 52.4658C163.232 52.4658 162.674 52.0785 162.478 51.4783C155.093 28.85 134.404 12.7727 109.772 10.5191C85.1591 8.26473 61.8985 20.3113 50.5217 41.2033C50.1625 41.8637 49.355 42.1329 48.6703 41.8215C47.9872 41.51 47.6601 40.7236 47.9223 40.0194C57.4954 14.2876 83.303 -1.9328 110.682 0.570419C138.079 3.07755 160.518 23.7269 165.25 50.7874C165.379 51.5268 164.914 52.2412 164.185 52.4228C164.07 52.4525 163.953 52.4658 163.838 52.4658Z" fill="#371A45"/>
<path d="M164.479 66.7926C164.009 71.9305 162.901 76.8626 161.24 81.5028L161.234 81.5083C149.116 100.461 125.679 115.579 100.369 113.264C75.0584 110.948 54.7596 91.8287 46.282 70.9915L46.2773 70.9853C45.4807 66.1197 45.2859 61.0686 45.7562 55.9307C45.9612 53.6842 46.2891 51.4768 46.7382 49.3186C56.7738 27.893 81.6197 13.9989 109.22 16.5241C136.825 19.05 158.741 37.2329 164.717 60.1289C164.762 62.3269 164.684 64.5515 164.479 66.7926Z" fill="#371A45"/>
<path d="M105.543 112.068C103.878 112.068 102.195 111.993 100.5 111.838C74.6935 109.478 55.3876 89.4416 47.6636 70.5857C47.3177 68.433 47.0947 66.2553 46.9961 64.0651C58.9464 79.2934 76.6841 91.0136 97.3547 92.9049C99.3227 93.0849 101.284 93.1726 103.229 93.1726C113.78 93.1726 123.935 90.5981 133.156 86.2318C133.467 87.465 134.258 88.4885 135.415 88.9627C135.858 89.1442 136.321 89.2311 136.783 89.2311C138.518 89.2311 140.258 88.0182 141.053 86.0792C141.64 84.6457 141.58 83.1323 141.01 81.9492C149.761 76.5202 157.379 69.4839 163.297 61.6597C163.287 63.3233 163.206 64.9994 163.053 66.6622C162.608 71.5317 161.564 76.3066 159.95 80.8591C149.656 96.8738 129.232 112.069 105.543 112.068Z" fill="#2A1A3B"/>
<path d="M47.6627 70.5857C55.3867 89.4416 74.6926 109.478 100.499 111.838C126.309 114.201 148.932 97.9998 159.949 80.8591C161.563 76.3066 162.607 71.5317 163.052 66.6622C163.246 64.5542 163.325 62.4242 163.288 60.3271C157.218 37.3842 135.461 20.3633 109.089 17.9508C82.7226 15.5384 58.2397 28.3213 48.1056 49.7743C47.6869 51.819 47.3763 53.9333 47.1814 56.0617C46.7354 60.9375 46.8974 65.8226 47.6627 70.5857ZM105.495 114.929C103.738 114.929 101.985 114.849 100.238 114.69C88.0592 113.575 76.2545 108.557 66.1015 100.177C56.9071 92.5896 49.41 82.4437 44.9842 71.6022C44.9271 71.4825 44.8864 71.3533 44.8637 71.2172C44.0358 66.1622 43.8566 60.975 44.33 55.8004C44.5397 53.5076 44.8785 51.229 45.3363 49.027C45.359 48.9183 45.3942 48.8119 45.4412 48.7109C50.5603 37.7833 59.3 28.7814 70.7167 22.6771C82.329 16.4703 95.6878 13.8505 109.35 15.0986C123.014 16.349 135.678 21.3524 145.972 29.5686C156.094 37.6471 163.054 48.0896 166.102 59.7676C166.13 59.8756 166.146 59.9875 166.148 60.0994C166.194 62.3569 166.112 64.6528 165.904 66.9236V66.9228C165.432 72.0905 164.316 77.1579 162.588 81.9859C162.541 82.1166 162.477 82.2371 162.398 82.3451C156.08 92.203 146.865 100.82 136.444 106.614C126.588 112.093 115.987 114.928 105.495 114.929Z" fill="#371A45"/>
<path d="M146.776 74.8047C146.311 74.8047 145.845 74.7476 145.385 74.6302C141.326 73.5926 139.196 68.2098 140.628 62.6071C141.898 57.6398 145.541 54.167 149.18 54.167C149.646 54.167 150.111 54.2242 150.571 54.3415C154.631 55.3791 156.761 60.7619 155.329 66.3646C154.059 71.332 150.416 74.8047 146.776 74.8047Z" fill="#9B8DA2"/>
<path d="M133.155 86.2314C132.898 85.2165 132.965 84.06 133.419 82.952C134.213 81.013 135.954 79.8001 137.688 79.8001C138.151 79.8001 138.613 79.8862 139.058 80.0685C139.935 80.4276 140.602 81.1045 141.009 81.9488C138.482 83.5162 135.857 84.9521 133.155 86.2314Z" fill="#9B8DA2"/>
<path d="M136.782 89.231C136.32 89.231 135.857 89.1441 135.413 88.9626C134.257 88.4884 133.466 87.4649 133.154 86.2316C135.856 84.9523 138.482 83.5164 141.008 81.949C141.579 83.1322 141.639 84.6455 141.051 86.0791C140.257 88.0181 138.517 89.231 136.782 89.231Z" fill="#958D9D"/>
<path d="M57.3365 74.8965C57.3365 74.8965 50.0271 44.127 67.1005 33.2863C78.0688 26.322 91.6209 24.5363 99.737 24.5363C104.255 24.5363 107.089 25.0896 106.856 25.6107C106.856 25.6107 80.5752 30.0287 69.0145 49.7344C60.0987 64.9306 57.3365 74.8965 57.3365 74.8965Z" fill="#9B8DA2"/>
</svg>
